<svg width="1554" height="1703" viewBox="0 0 1554 1703" fill="none" xmlns="http://www.w3.org/2000/svg">
<path d="M584.327 1119.3L584.327 924.848H778.781L584.327 1119.3Z" fill="#A9927D"/>
<path d="M645.139 1058.54L645.139 985.615H718.059L645.139 1058.54Z" fill="#5E503F"/>
<path d="M778.781 925.555L584.327 925.555V731.101L778.781 925.555Z" fill="#5E503F"/>
<path d="M718.014 864.743L645.094 864.743V791.822L718.014 864.743Z" fill="#22333B"/>
<path d="M584.327 731.808L584.327 926.262H389.872L584.327 731.808Z" fill="#22333B"/>
<path d="M523.514 792.575L523.514 865.495H450.594L523.514 792.575Z" fill="#F2F4F3"/>
<path d="M390 925.226L584.455 925.226V1119.68L390 925.226Z" fill="#F2F4F3"/>
<path d="M450.768 986.038L523.688 986.038V1058.96L450.768 986.038Z" fill="#A9927D"/>
<path d="M775.808 924.555L970.262 924.555V1119.01L775.808 924.555Z" fill="#A9927D"/>
<path d="M836.575 985.367L909.496 985.367V1058.29L836.575 985.367Z" fill="#5E503F"/>
<path d="M969.555 1119.01L969.556 924.555H1164.01L969.555 1119.01Z" fill="#5E503F"/>
<path d="M1030.37 1058.24L1030.37 985.322H1103.29L1030.37 1058.24Z" fill="#22333B"/>
<path d="M1163.3 924.555L968.848 924.555V730.101L1163.3 924.555Z" fill="#22333B"/>
<path d="M1102.54 863.743L1029.62 863.743V790.823L1102.54 863.743Z" fill="#F2F4F3"/>
<path d="M969.555 730.101L969.555 924.555H775.101L969.555 730.101Z" fill="#F2F4F3"/>
<path d="M908.743 790.868L908.743 863.788H835.823L908.743 790.868Z" fill="#A9927D"/>
<path d="M583.808 730.555L778.262 730.555V925.01L583.808 730.555Z" fill="#A9927D"/>
<path d="M644.575 791.367L717.496 791.367V864.288L644.575 791.367Z" fill="#5E503F"/>
<path d="M777.555 925.01L777.556 730.555H972.01L777.555 925.01Z" fill="#5E503F"/>
<path d="M838.368 864.242L838.368 791.322H911.288L838.368 864.242Z" fill="#22333B"/>
<path d="M971.302 730.555L776.848 730.555V536.101L971.302 730.555Z" fill="#22333B"/>
<path d="M910.535 669.743L837.615 669.743V596.823L910.535 669.743Z" fill="#F2F4F3"/>
<path d="M777.555 536.101L777.555 730.555H583.101L777.555 536.101Z" fill="#F2F4F3"/>
<path d="M716.743 596.868L716.743 669.788H643.823L716.743 596.868Z" fill="#A9927D"/>
<path d="M388.555 1311.3L388.555 1116.85H583.01L388.555 1311.3Z" fill="#A9927D"/>
<path d="M449.368 1250.54L449.368 1177.61H522.288L449.368 1250.54Z" fill="#5E503F"/>
<path d="M583.01 1117.55L388.555 1117.55V923.101L583.01 1117.55Z" fill="#5E503F"/>
<path d="M522.242 1056.74L449.322 1056.74V983.822L522.242 1056.74Z" fill="#22333B"/>
<path d="M388.555 923.808L388.555 1118.26H194.101L388.555 923.808Z" fill="#22333B"/>
<path d="M327.743 984.575L327.743 1057.5H254.822L327.743 984.575Z" fill="#F2F4F3"/>
<path d="M194.101 1117.56L388.555 1117.56V1312.01L194.101 1117.56Z" fill="#F2F4F3"/>
<path d="M254.868 1178.37L327.788 1178.37V1251.29L254.868 1178.37Z" fill="#A9927D"/>
<path d="M1163.56 535.808L1163.56 730.262H969.101L1163.56 535.808Z" fill="#A9927D"/>
<path d="M1102.74 596.575L1102.74 669.496H1029.82L1102.74 596.575Z" fill="#5E503F"/>
<path d="M969.101 729.555L1163.55 729.556V924.01L969.101 729.555Z" fill="#5E503F"/>
<path d="M1029.87 790.368L1102.79 790.368V863.288L1029.87 790.368Z" fill="#22333B"/>
<path d="M1163.56 923.302L1163.56 728.848H1358.01L1163.56 923.302Z" fill="#22333B"/>
<path d="M1224.37 862.535L1224.37 789.615H1297.29L1224.37 862.535Z" fill="#F2F4F3"/>
<path d="M1358.01 729.555L1163.56 729.555V535.101L1358.01 729.555Z" fill="#F2F4F3"/>
<path d="M1297.24 668.743L1224.32 668.743V595.823L1297.24 668.743Z" fill="#A9927D"/>
<path d="M970.555 730.302L970.555 535.848H1165.01L970.555 730.302Z" fill="#A9927D"/>
<path d="M1031.37 669.535L1031.37 596.615H1104.29L1031.37 669.535Z" fill="#5E503F"/>
<path d="M1165.01 536.555L970.555 536.555V342.101L1165.01 536.555Z" fill="#5E503F"/>
<path d="M1104.24 475.743L1031.32 475.743V402.822L1104.24 475.743Z" fill="#22333B"/>
<path d="M970.555 342.808L970.555 537.262H776.101L970.555 342.808Z" fill="#22333B"/>
<path d="M909.743 403.575L909.743 476.495H836.823L909.743 403.575Z" fill="#F2F4F3"/>
<path d="M776.101 536.555L970.555 536.555V731.01L776.101 536.555Z" fill="#F2F4F3"/>
<path d="M836.868 597.367L909.788 597.367V670.288L836.868 597.367Z" fill="#A9927D"/>
<path d="M970.302 1118.56L775.848 1118.56V924.101L970.302 1118.56Z" fill="#A9927D"/>
<path d="M909.535 1057.74L836.615 1057.74V984.823L909.535 1057.74Z" fill="#5E503F"/>
<path d="M776.555 924.101L776.555 1118.55H582.101L776.555 924.101Z" fill="#5E503F"/>
<path d="M715.743 984.868L715.743 1057.79H642.822L715.743 984.868Z" fill="#22333B"/>
<path d="M582.808 1118.56L777.262 1118.56V1313.01L582.808 1118.56Z" fill="#22333B"/>
<path d="M643.575 1179.37L716.495 1179.37V1252.29L643.575 1179.37Z" fill="#F2F4F3"/>
<path d="M776.555 1313.01L776.555 1118.56H971.01L776.555 1313.01Z" fill="#F2F4F3"/>
<path d="M837.367 1252.24L837.367 1179.32H910.288L837.367 1252.24Z" fill="#A9927D"/>
<path d="M1358.3 341.555L1163.85 341.555V147.101L1358.3 341.555Z" fill="#A9927D"/>
<path d="M1297.53 280.743L1224.61 280.743V207.823L1297.53 280.743Z" fill="#5E503F"/>
<path d="M1164.55 147.101L1164.55 341.555H970.1L1164.55 147.101Z" fill="#5E503F"/>
<path d="M1103.74 207.868L1103.74 280.788H1030.82L1103.74 207.868Z" fill="#22333B"/>
<path d="M970.807 341.555L1165.26 341.555V536.01L970.807 341.555Z" fill="#22333B"/>
<path d="M1031.57 402.367L1104.49 402.367V475.288L1031.57 402.367Z" fill="#F2F4F3"/>
<path d="M1164.55 536.01L1164.55 341.555H1359.01L1164.55 536.01Z" fill="#F2F4F3"/>
<path d="M1225.37 475.242L1225.37 402.322H1298.29L1225.37 475.242Z" fill="#A9927D"/>
<path d="M778.302 1310.56L583.848 1310.56V1116.1L778.302 1310.56Z" fill="#A9927D"/>
<path d="M717.535 1249.74L644.615 1249.74V1176.82L717.535 1249.74Z" fill="#5E503F"/>
<path d="M584.555 1116.1L584.555 1310.55H390.101L584.555 1116.1Z" fill="#5E503F"/>
<path d="M523.743 1176.87L523.743 1249.79H450.822L523.743 1176.87Z" fill="#22333B"/>
<path d="M390.808 1310.56L585.262 1310.56V1505.01L390.808 1310.56Z" fill="#22333B"/>
<path d="M451.575 1371.37L524.495 1371.37V1444.29L451.575 1371.37Z" fill="#F2F4F3"/>
<path d="M584.555 1505.01L584.555 1310.56H779.01L584.555 1505.01Z" fill="#F2F4F3"/>
<path d="M645.367 1444.24L645.367 1371.32H718.288L645.367 1444.24Z" fill="#A9927D"/>
<path d="M969.808 1119.56L1164.26 1119.56V1314.01L969.808 1119.56Z" fill="#A9927D"/>
<path d="M1030.58 1180.37L1103.5 1180.37V1253.29L1030.58 1180.37Z" fill="#5E503F"/>
<path d="M1163.56 1314.01L1163.56 1119.56H1358.01L1163.56 1314.01Z" fill="#5E503F"/>
<path d="M1224.37 1253.24L1224.37 1180.32H1297.29L1224.37 1253.24Z" fill="#22333B"/>
<path d="M1357.3 1119.56L1162.85 1119.56V925.101L1357.3 1119.56Z" fill="#22333B"/>
<path d="M1296.54 1058.74L1223.62 1058.74V985.823L1296.54 1058.74Z" fill="#F2F4F3"/>
<path d="M1163.56 925.101L1163.56 1119.55H969.101L1163.56 925.101Z" fill="#F2F4F3"/>
<path d="M1102.74 985.868L1102.74 1058.79H1029.82L1102.74 985.868Z" fill="#A9927D"/>
<path d="M969.327 1508.3L969.327 1313.85H1163.78L969.327 1508.3Z" fill="#A9927D"/>
<path d="M1030.14 1447.54L1030.14 1374.61H1103.06L1030.14 1447.54Z" fill="#5E503F"/>
<path d="M1163.78 1314.55L969.327 1314.55V1120.1L1163.78 1314.55Z" fill="#5E503F"/>
<path d="M1103.01 1253.74L1030.09 1253.74V1180.82L1103.01 1253.74Z" fill="#22333B"/>
<path d="M969.327 1120.81L969.327 1315.26H774.872L969.327 1120.81Z" fill="#22333B"/>
<path d="M908.514 1181.57L908.514 1254.5H835.594L908.514 1181.57Z" fill="#F2F4F3"/>
<path d="M775 1314.23L969.455 1314.23V1508.68L775 1314.23Z" fill="#F2F4F3"/>
<path d="M835.768 1375.04L908.688 1375.04V1447.96L835.768 1375.04Z" fill="#A9927D"/>
</svg>
